<svg width="166" height="166" viewBox="0 0 166 166" fill="none" xmlns="http://www.w3.org/2000/svg">
<path d="M165.462 82.9618C165.462 128.525 128.525 165.462 82.9619 165.462C37.3984 165.462 0.461914 128.525 0.461914 82.9618C0.461914 37.3983 37.3984 0.461792 82.9619 0.461792C128.525 0.461792 165.462 37.3983 165.462 82.9618Z" fill="url(#paint0_linear_1232_7766)"/>
<path d="M154.587 81.769C154.587 121.865 122.083 154.369 81.9868 154.369C41.8909 154.369 9.38682 121.865 9.38682 81.769C9.38682 41.6731 41.8909 9.16896 81.9868 9.16896C122.083 9.16896 154.587 41.6731 154.587 81.769Z" fill="url(#paint1_linear_1232_7766)"/>
<path d="M36.4414 108.151H35.8611C33.4109 108.151 31.584 107.227 30.3804 105.378C29.1769 103.487 28.79 101.295 29.2198 98.8016L33.7333 70.1734C34.2061 66.7776 35.2378 64.0695 36.8282 62.0492C38.4187 59.9859 40.8903 58.9543 44.2432 58.9543H45.9196C49.7453 58.9543 52.3244 59.9859 53.657 62.0492C54.9895 64.1125 55.3764 66.7991 54.8176 70.109L53.9794 75.2672H45.8551L46.6934 70.0445C46.8223 68.9699 46.7578 68.1961 46.4999 67.7233C46.242 67.2504 45.7047 67.014 44.888 67.014C44.1572 67.014 43.5984 67.2504 43.2115 67.7233C42.8677 68.1961 42.6098 68.9699 42.4378 70.0445L38.2468 96.5449C37.9459 98.7371 38.5691 99.8333 40.1166 99.8333C41.7071 99.8333 42.6527 98.8446 42.9536 96.8673L44.6301 86.4863H41.4706L42.8247 78.4266H53.9149L49.3369 107.506H44.3721C44.3721 105.787 44.1357 104.261 43.6629 102.928C43.1041 104.132 42.1584 105.314 40.8259 106.474C39.5363 107.592 38.0748 108.151 36.4414 108.151Z" fill="url(#paint2_linear_1232_7766)"/>
<path d="M68.304 59.5346L60.6956 107.506H52.378L59.9864 59.5346H68.304Z" fill="url(#paint3_linear_1232_7766)"/>
<path d="M75.5205 87.0022L72.2966 107.506H63.979L71.5874 59.5346H84.0961C86.7182 59.5346 88.6525 60.2438 89.8991 61.6624C91.1457 63.0379 91.554 64.9937 91.1242 67.5298L89.8991 75.2027C89.3833 78.6845 87.7928 80.8338 85.1277 81.6505C87.363 82.7681 88.2871 84.6595 87.9003 87.3246L85.3212 103.573C85.1062 105.034 85.1492 106.238 85.4501 107.184L85.3856 107.506H77.068C76.6811 106.732 76.6166 105.507 76.8745 103.831L79.0668 90.0326C79.2817 88.872 79.2602 88.0768 79.0023 87.6469C78.7444 87.2171 78.1641 87.0022 77.2614 87.0022H75.5205ZM78.7444 66.9495L76.8101 79.0714H78.6154C79.4322 79.0714 80.034 78.878 80.4208 78.4911C80.8077 78.0612 81.0871 77.309 81.259 76.2344L82.2907 69.5287C82.5916 67.8093 82.0113 66.9495 80.5498 66.9495H78.7444Z" fill="url(#paint4_linear_1232_7766)"/>
<path d="M100.751 107.506L101.138 99.4464H96.0441L94.0453 107.506H86.5014L99.9773 59.5346H109.842L108.746 107.506H100.751ZM98.1719 91.1932H101.525L102.234 75.0093L98.1719 91.1932Z" fill="url(#paint5_linear_1232_7766)"/>
<path d="M121.957 87.0022L118.733 107.506H110.416L118.024 59.5346H130.533C133.155 59.5346 135.089 60.2438 136.336 61.6624C137.582 63.0379 137.991 64.9937 137.561 67.5298L136.336 75.2027C135.82 78.6845 134.229 80.8338 131.564 81.6505C133.8 82.7681 134.724 84.6595 134.337 87.3246L131.758 103.573C131.543 105.034 131.586 106.238 131.887 107.184L131.822 107.506H123.505C123.118 106.732 123.053 105.507 123.311 103.831L125.503 90.0326C125.718 88.872 125.697 88.0768 125.439 87.6469C125.181 87.2171 124.601 87.0022 123.698 87.0022H121.957ZM125.181 66.9495L123.247 79.0714H125.052C125.869 79.0714 126.471 78.878 126.858 78.4911C127.244 78.0612 127.524 77.309 127.696 76.2344L128.727 69.5287C129.028 67.8093 128.448 66.9495 126.986 66.9495H125.181Z" fill="url(#paint6_linear_1232_7766)"/>
<path fill-rule="evenodd" clip-rule="evenodd" d="M165.923 82.9617C165.923 128.78 128.78 165.923 82.9617 165.923C37.1432 165.923 0 128.78 0 82.9617C0 37.1432 37.1432 0 82.9617 0C128.78 0 165.923 37.1432 165.923 82.9617ZM165.462 82.9618C165.462 128.525 128.525 165.462 82.9619 165.462C37.3984 165.462 0.461914 128.525 0.461914 82.9618C0.461914 37.3983 37.3984 0.461792 82.9619 0.461792C128.525 0.461792 165.462 37.3983 165.462 82.9618Z" fill="#7915E6"/>
<defs>
<linearGradient id="paint0_linear_1232_7766" x1="82.9617" y1="0" x2="82.9617" y2="165.923" gradientUnits="userSpaceOnUse">
<stop stop-color="#9C60EF"/>
<stop offset="1" stop-color="#680FE6"/>
</linearGradient>
<linearGradient id="paint1_linear_1232_7766" x1="82.9617" y1="0" x2="82.9617" y2="165.923" gradientUnits="userSpaceOnUse">
<stop stop-color="#750DE6"/>
<stop offset="1" stop-color="#9048EC"/>
</linearGradient>
<linearGradient id="paint2_linear_1232_7766" x1="82.5088" y1="59.102" x2="82.5088" y2="107.643" gradientUnits="userSpaceOnUse">
<stop stop-color="#FBF7FF"/>
<stop offset="1" stop-color="#E6D0FF"/>
</linearGradient>
<linearGradient id="paint3_linear_1232_7766" x1="82.5088" y1="59.102" x2="82.5088" y2="107.643" gradientUnits="userSpaceOnUse">
<stop stop-color="#FBF7FF"/>
<stop offset="1" stop-color="#E6D0FF"/>
</linearGradient>
<linearGradient id="paint4_linear_1232_7766" x1="82.5088" y1="59.102" x2="82.5088" y2="107.643" gradientUnits="userSpaceOnUse">
<stop stop-color="#FBF7FF"/>
<stop offset="1" stop-color="#E6D0FF"/>
</linearGradient>
<linearGradient id="paint5_linear_1232_7766" x1="82.5088" y1="59.102" x2="82.5088" y2="107.643" gradientUnits="userSpaceOnUse">
<stop stop-color="#FBF7FF"/>
<stop offset="1" stop-color="#E6D0FF"/>
</linearGradient>
<linearGradient id="paint6_linear_1232_7766" x1="82.5088" y1="59.102" x2="82.5088" y2="107.643" gradientUnits="userSpaceOnUse">
<stop stop-color="#FBF7FF"/>
<stop offset="1" stop-color="#E6D0FF"/>
</linearGradient>
</defs>
</svg>
