<svg width="667" height="823" viewBox="0 0 667 823" fill="none" xmlns="http://www.w3.org/2000/svg">
<g clip-path="url(#clip0_1183_6294)">
<path d="M220.117 619.905H216.487L217.781 623.296L278.281 781.796L278.895 783.405H280.617H389.617H391.308L391.937 781.834L455.437 623.334L456.811 619.905H453.117H220.117Z" fill="url(#paint0_linear_1183_6294)" stroke="url(#paint1_linear_1183_6294)" stroke-width="5"/>
<path d="M334.618 96.9044L361.464 63.1544H307.771L334.618 96.9044Z" fill="#FFF935"/>
<path d="M220 818.5C220 754.159 272.159 702 336.5 702V702C400.841 702 453 754.159 453 818.5V823.5H220V818.5Z" fill="url(#paint2_linear_1183_6294)"/>
<mask id="path-4-outside-1_1183_6294" maskUnits="userSpaceOnUse" x="-123.032" y="-127.588" width="914.978" height="914.978" fill="black">
<rect fill="white" x="-123.032" y="-127.588" width="914.978" height="914.978"/>
<path fill-rule="evenodd" clip-rule="evenodd" d="M651.563 330.453C651.563 505.588 509.588 647.563 334.453 647.563C159.318 647.563 17.343 505.588 17.343 330.453C17.343 155.318 159.318 13.3426 334.453 13.3426C509.588 13.3426 651.563 155.318 651.563 330.453ZM599 330C599 476.356 480.58 595 334.5 595C188.421 595 70.0002 476.356 70.0002 330C70.0002 183.645 188.421 65.0001 334.5 65C480.58 65.0001 599 183.645 599 330Z"/>
</mask>
<path fill-rule="evenodd" clip-rule="evenodd" d="M651.563 330.453C651.563 505.588 509.588 647.563 334.453 647.563C159.318 647.563 17.343 505.588 17.343 330.453C17.343 155.318 159.318 13.3426 334.453 13.3426C509.588 13.3426 651.563 155.318 651.563 330.453ZM599 330C599 476.356 480.58 595 334.5 595C188.421 595 70.0002 476.356 70.0002 330C70.0002 183.645 188.421 65.0001 334.5 65C480.58 65.0001 599 183.645 599 330Z" fill="url(#paint3_radial_1183_6294)"/>
<path d="M334.453 647.563L334.453 641.563L334.453 647.563ZM651.563 330.453L645.563 330.453L645.563 330.453L651.563 330.453ZM17.343 330.453L11.343 330.453V330.453L17.343 330.453ZM334.453 13.3426L334.453 7.34259L334.453 7.34259L334.453 13.3426ZM334.5 595L334.5 601L334.5 601L334.5 595ZM599 330L593 330V330L599 330ZM70.0002 330L76.0002 330L76.0002 330L70.0002 330ZM334.5 65L334.5 59L334.5 59L334.5 65ZM334.453 653.563C512.902 653.563 657.563 508.901 657.563 330.453L645.563 330.453C645.563 502.274 506.274 641.563 334.453 641.563L334.453 653.563ZM11.343 330.453C11.343 508.901 156.004 653.563 334.453 653.563L334.453 641.563C162.632 641.563 23.343 502.274 23.343 330.453L11.343 330.453ZM334.453 7.34259C156.004 7.34262 11.343 152.004 11.343 330.453L23.343 330.453C23.343 158.631 162.632 19.3426 334.453 19.3426L334.453 7.34259ZM657.563 330.453C657.563 152.004 512.902 7.34261 334.453 7.34259L334.453 19.3426C506.274 19.3426 645.563 158.631 645.563 330.453L657.563 330.453ZM334.5 601C483.904 601 605 479.659 605 330L593 330C593 473.053 477.255 589 334.5 589L334.5 601ZM64.0002 330C64.0002 479.659 185.097 601 334.5 601L334.5 589C191.745 589 76.0002 473.052 76.0002 330L64.0002 330ZM334.5 59C185.097 59.0001 64.0002 180.342 64.0002 330L76.0002 330C76.0002 186.948 191.745 71.0001 334.5 71L334.5 59ZM605 330C605 180.342 483.904 59.0001 334.5 59L334.5 71C477.255 71.0001 593 186.948 593 330L605 330Z" fill="url(#paint4_linear_1183_6294)" mask="url(#path-4-outside-1_1183_6294)"/>
<g filter="url(#filter0_f_1183_6294)">
<ellipse cx="9.41493" cy="9.41141" rx="9.41493" ry="9.41141" transform="matrix(0.00279132 -0.999996 0.99996 0.00890914 619.751 342.531)" fill="url(#paint5_linear_1183_6294)"/>
<ellipse cx="9.43533" cy="9.39096" rx="9.43533" ry="9.39096" transform="matrix(-0.393356 -0.919386 0.92092 -0.389751 599.534 229.369)" fill="url(#paint6_linear_1183_6294)"/>
<ellipse cx="9.39337" cy="9.43293" rx="9.39337" ry="9.43293" transform="matrix(-0.400249 0.916406 0.914611 0.404334 598.956 436.496)" fill="url(#paint7_linear_1183_6294)"/>
<ellipse cx="9.44192" cy="9.38433" rx="9.44192" ry="9.38433" transform="matrix(0.702826 0.711362 -0.711099 0.703092 543.398 110.751)" fill="url(#paint8_linear_1183_6294)"/>
<ellipse cx="9.38433" cy="9.44192" rx="9.38433" ry="9.44192" transform="matrix(0.711099 -0.703092 0.702826 0.711362 528.51 540.291)" fill="url(#paint9_linear_1183_6294)"/>
<ellipse cx="9.43284" cy="9.39346" rx="9.43284" ry="9.39346" transform="matrix(0.915433 0.402472 0.398367 -0.917226 439.145 65.3149)" fill="url(#paint10_linear_1183_6294)"/>
<ellipse cx="9.39103" cy="9.43526" rx="9.39103" ry="9.43526" transform="matrix(0.921719 -0.387859 0.391485 0.920185 437.663 595.973)" fill="url(#paint11_linear_1183_6294)"/>
<ellipse cx="9.41141" cy="9.41493" rx="9.41141" ry="9.41493" transform="matrix(0.99996 0.00890923 -0.0027914 0.999996 326.317 26.6501)" fill="url(#paint12_linear_1183_6294)"/>
<ellipse cx="9.41141" cy="9.41493" rx="9.41141" ry="9.41493" transform="matrix(0.99996 0.00890923 -0.0027914 0.999996 324.673 615.508)" fill="url(#paint13_linear_1183_6294)"/>
<ellipse cx="9.39103" cy="9.43526" rx="9.39103" ry="9.43526" transform="matrix(0.921719 -0.387859 0.391485 0.920185 206.464 52.9716)" fill="url(#paint14_linear_1183_6294)"/>
<ellipse cx="9.43284" cy="9.39346" rx="9.43284" ry="9.39346" transform="matrix(0.915433 0.402472 0.398367 -0.917226 204.925 604.17)" fill="url(#paint15_linear_1183_6294)"/>
<ellipse cx="9.44192" cy="9.38433" rx="9.44192" ry="9.38433" transform="matrix(0.702826 0.711362 -0.711099 0.703092 126.44 523.014)" fill="url(#paint16_linear_1183_6294)"/>
<ellipse cx="9.38433" cy="9.44192" rx="9.38433" ry="9.44192" transform="matrix(0.711099 -0.703092 0.702826 0.711362 113.874 120.62)" fill="url(#paint17_linear_1183_6294)"/>
<ellipse cx="9.39337" cy="9.43293" rx="9.39337" ry="9.43293" transform="matrix(-0.400249 0.916406 0.914611 0.404334 60.6108 198.89)" fill="url(#paint18_linear_1183_6294)"/>
<ellipse cx="9.43533" cy="9.39096" rx="9.43533" ry="9.39096" transform="matrix(-0.393356 -0.919386 0.92092 -0.389751 59.8892 457.371)" fill="url(#paint19_linear_1183_6294)"/>
<ellipse cx="9.41493" cy="9.41141" rx="9.41493" ry="9.41141" transform="matrix(0.00279132 -0.999996 0.99996 0.00890914 31.1343 337.286)" fill="url(#paint20_linear_1183_6294)"/>
</g>
<ellipse cx="9.41493" cy="9.41141" rx="9.41493" ry="9.41141" transform="matrix(0.00279132 -0.999996 0.99996 0.00890914 619.751 342.531)" fill="url(#paint21_linear_1183_6294)"/>
<ellipse cx="9.43533" cy="9.39096" rx="9.43533" ry="9.39096" transform="matrix(-0.393356 -0.919386 0.92092 -0.389751 599.534 229.369)" fill="url(#paint22_linear_1183_6294)"/>
<ellipse cx="9.39337" cy="9.43293" rx="9.39337" ry="9.43293" transform="matrix(-0.400249 0.916406 0.914611 0.404334 598.956 436.496)" fill="url(#paint23_linear_1183_6294)"/>
<ellipse cx="9.44192" cy="9.38433" rx="9.44192" ry="9.38433" transform="matrix(0.702826 0.711362 -0.711099 0.703092 543.398 110.751)" fill="url(#paint24_linear_1183_6294)"/>
<ellipse cx="9.38433" cy="9.44192" rx="9.38433" ry="9.44192" transform="matrix(0.711099 -0.703092 0.702826 0.711362 528.51 540.291)" fill="url(#paint25_linear_1183_6294)"/>
<ellipse cx="9.43284" cy="9.39346" rx="9.43284" ry="9.39346" transform="matrix(0.915433 0.402472 0.398367 -0.917226 439.145 65.3149)" fill="url(#paint26_linear_1183_6294)"/>
<ellipse cx="9.39103" cy="9.43526" rx="9.39103" ry="9.43526" transform="matrix(0.921719 -0.387859 0.391485 0.920185 437.663 595.973)" fill="url(#paint27_linear_1183_6294)"/>
<ellipse cx="9.41141" cy="9.41493" rx="9.41141" ry="9.41493" transform="matrix(0.99996 0.00890923 -0.0027914 0.999996 326.317 26.6501)" fill="url(#paint28_linear_1183_6294)"/>
<ellipse cx="9.41141" cy="9.41493" rx="9.41141" ry="9.41493" transform="matrix(0.99996 0.00890923 -0.0027914 0.999996 324.673 615.508)" fill="url(#paint29_linear_1183_6294)"/>
<ellipse cx="9.39103" cy="9.43526" rx="9.39103" ry="9.43526" transform="matrix(0.921719 -0.387859 0.391485 0.920185 206.464 52.9716)" fill="url(#paint30_linear_1183_6294)"/>
<ellipse cx="9.43284" cy="9.39346" rx="9.43284" ry="9.39346" transform="matrix(0.915433 0.402472 0.398367 -0.917226 204.925 604.17)" fill="url(#paint31_linear_1183_6294)"/>
<ellipse cx="9.44192" cy="9.38433" rx="9.44192" ry="9.38433" transform="matrix(0.702826 0.711362 -0.711099 0.703092 126.44 523.014)" fill="url(#paint32_linear_1183_6294)"/>
<ellipse cx="9.38433" cy="9.44192" rx="9.38433" ry="9.44192" transform="matrix(0.711099 -0.703092 0.702826 0.711362 113.874 120.62)" fill="url(#paint33_linear_1183_6294)"/>
<ellipse cx="9.39337" cy="9.43293" rx="9.39337" ry="9.43293" transform="matrix(-0.400249 0.916406 0.914611 0.404334 60.6108 198.89)" fill="url(#paint34_linear_1183_6294)"/>
<ellipse cx="9.43533" cy="9.39096" rx="9.43533" ry="9.39096" transform="matrix(-0.393356 -0.919386 0.92092 -0.389751 59.8892 457.371)" fill="url(#paint35_linear_1183_6294)"/>
<ellipse cx="9.41493" cy="9.41141" rx="9.41493" ry="9.41141" transform="matrix(0.00279132 -0.999996 0.99996 0.00890914 31.1343 337.286)" fill="url(#paint36_linear_1183_6294)"/>
<path d="M146.979 140.788C251.84 37.2448 420.784 38.3128 524.327 143.173C627.87 248.034 626.802 416.978 521.942 520.521C417.081 624.064 248.137 622.996 144.594 518.136C41.0507 413.275 42.1187 244.331 146.979 140.788Z" stroke="url(#paint37_linear_1183_6294)" stroke-width="6"/>
</g>
<defs>
<filter id="filter0_f_1183_6294" x="16.5216" y="12.0946" width="636.718" height="636.967" filterUnits="userSpaceOnUse" color-interpolation-filters="sRGB">
<feFlood flood-opacity="0" result="BackgroundImageFix"/>
<feBlend mode="normal" in="SourceGraphic" in2="BackgroundImageFix" result="shape"/>
<feGaussianBlur stdDeviation="7.31955" result="effect1_foregroundBlur_1183_6294"/>
</filter>
<linearGradient id="paint0_linear_1183_6294" x1="336.617" y1="622.405" x2="336.617" y2="780.905" gradientUnits="userSpaceOnUse">
<stop stop-color="#06292B"/>
<stop offset="1" stop-color="#094B4E"/>
</linearGradient>
<linearGradient id="paint1_linear_1183_6294" x1="336.617" y1="622.405" x2="336.617" y2="780.905" gradientUnits="userSpaceOnUse">
<stop stop-color="#13787C"/>
<stop offset="1" stop-color="#083B3D"/>
</linearGradient>
<linearGradient id="paint2_linear_1183_6294" x1="336.5" y1="702" x2="336.5" y2="875" gradientUnits="userSpaceOnUse">
<stop stop-color="#18181D"/>
<stop offset="0.8" stop-color="#6B6B82"/>
</linearGradient>
<radialGradient id="paint3_radial_1183_6294" cx="0" cy="0" r="1" gradientUnits="userSpaceOnUse" gradientTransform="translate(334.453 330.453) rotate(90) scale(317.11)">
<stop stop-color="#58A8AB"/>
<stop offset="1" stop-color="#103537"/>
</radialGradient>
<linearGradient id="paint4_linear_1183_6294" x1="334.453" y1="13.3425" x2="334.453" y2="647.562" gradientUnits="userSpaceOnUse">
<stop stop-color="#F2EB04"/>
<stop offset="1" stop-color="#FFF935"/>
</linearGradient>
<linearGradient id="paint5_linear_1183_6294" x1="9.41493" y1="0" x2="9.41493" y2="18.8228" gradientUnits="userSpaceOnUse">
<stop stop-color="#F2EB04"/>
<stop offset="1" stop-color="#F2EB04"/>
</linearGradient>
<linearGradient id="paint6_linear_1183_6294" x1="9.43533" y1="0" x2="9.43533" y2="18.7819" gradientUnits="userSpaceOnUse">
<stop stop-color="#F2EB04"/>
<stop offset="1" stop-color="#F2EB04"/>
</linearGradient>
<linearGradient id="paint7_linear_1183_6294" x1="9.39337" y1="0" x2="9.39337" y2="18.8659" gradientUnits="userSpaceOnUse">
<stop stop-color="#F2EB04"/>
<stop offset="1" stop-color="#F2EB04"/>
</linearGradient>
<linearGradient id="paint8_linear_1183_6294" x1="9.44192" y1="0" x2="9.44192" y2="18.7687" gradientUnits="userSpaceOnUse">
<stop stop-color="#F2EB04"/>
<stop offset="1" stop-color="#F2EB04"/>
</linearGradient>
<linearGradient id="paint9_linear_1183_6294" x1="9.38433" y1="0" x2="9.38433" y2="18.8838" gradientUnits="userSpaceOnUse">
<stop stop-color="#F2EB04"/>
<stop offset="1" stop-color="#F2EB04"/>
</linearGradient>
<linearGradient id="paint10_linear_1183_6294" x1="9.43284" y1="0" x2="9.43284" y2="18.7869" gradientUnits="userSpaceOnUse">
<stop stop-color="#F2EB04"/>
<stop offset="1" stop-color="#F2EB04"/>
</linearGradient>
<linearGradient id="paint11_linear_1183_6294" x1="9.39103" y1="0" x2="9.39103" y2="18.8705" gradientUnits="userSpaceOnUse">
<stop stop-color="#F2EB04"/>
<stop offset="1" stop-color="#F2EB04"/>
</linearGradient>
<linearGradient id="paint12_linear_1183_6294" x1="9.41141" y1="0" x2="9.41141" y2="18.8299" gradientUnits="userSpaceOnUse">
<stop stop-color="#F2EB04"/>
<stop offset="1" stop-color="#F2EB04"/>
</linearGradient>
<linearGradient id="paint13_linear_1183_6294" x1="9.41141" y1="0" x2="9.41141" y2="18.8299" gradientUnits="userSpaceOnUse">
<stop stop-color="#F2EB04"/>
<stop offset="1" stop-color="#F2EB04"/>
</linearGradient>
<linearGradient id="paint14_linear_1183_6294" x1="9.39103" y1="0" x2="9.39103" y2="18.8705" gradientUnits="userSpaceOnUse">
<stop stop-color="#F2EB04"/>
<stop offset="1" stop-color="#F2EB04"/>
</linearGradient>
<linearGradient id="paint15_linear_1183_6294" x1="9.43284" y1="0" x2="9.43284" y2="18.7869" gradientUnits="userSpaceOnUse">
<stop stop-color="#F2EB04"/>
<stop offset="1" stop-color="#F2EB04"/>
</linearGradient>
<linearGradient id="paint16_linear_1183_6294" x1="9.44192" y1="0" x2="9.44192" y2="18.7687" gradientUnits="userSpaceOnUse">
<stop stop-color="#F2EB04"/>
<stop offset="1" stop-color="#F2EB04"/>
</linearGradient>
<linearGradient id="paint17_linear_1183_6294" x1="9.38433" y1="0" x2="9.38433" y2="18.8838" gradientUnits="userSpaceOnUse">
<stop stop-color="#F2EB04"/>
<stop offset="1" stop-color="#F2EB04"/>
</linearGradient>
<linearGradient id="paint18_linear_1183_6294" x1="9.39337" y1="0" x2="9.39337" y2="18.8659" gradientUnits="userSpaceOnUse">
<stop stop-color="#F2EB04"/>
<stop offset="1" stop-color="#F2EB04"/>
</linearGradient>
<linearGradient id="paint19_linear_1183_6294" x1="9.43533" y1="0" x2="9.43533" y2="18.7819" gradientUnits="userSpaceOnUse">
<stop stop-color="#F2EB04"/>
<stop offset="1" stop-color="#F2EB04"/>
</linearGradient>
<linearGradient id="paint20_linear_1183_6294" x1="9.41493" y1="0" x2="9.41493" y2="18.8228" gradientUnits="userSpaceOnUse">
<stop stop-color="#F2EB04"/>
<stop offset="1" stop-color="#F2EB04"/>
</linearGradient>
<linearGradient id="paint21_linear_1183_6294" x1="9.41493" y1="0" x2="9.41493" y2="18.8228" gradientUnits="userSpaceOnUse">
<stop stop-color="#FFFA62"/>
<stop offset="1" stop-color="#F2EB04"/>
</linearGradient>
<linearGradient id="paint22_linear_1183_6294" x1="9.43533" y1="0" x2="9.43533" y2="18.7819" gradientUnits="userSpaceOnUse">
<stop stop-color="#FFFA62"/>
<stop offset="1" stop-color="#F2EB04"/>
</linearGradient>
<linearGradient id="paint23_linear_1183_6294" x1="9.39337" y1="0" x2="9.39337" y2="18.8659" gradientUnits="userSpaceOnUse">
<stop stop-color="#FFFA62"/>
<stop offset="1" stop-color="#F2EB04"/>
</linearGradient>
<linearGradient id="paint24_linear_1183_6294" x1="9.44192" y1="0" x2="9.44192" y2="18.7687" gradientUnits="userSpaceOnUse">
<stop stop-color="#FFFA62"/>
<stop offset="1" stop-color="#F2EB04"/>
</linearGradient>
<linearGradient id="paint25_linear_1183_6294" x1="9.38433" y1="0" x2="9.38433" y2="18.8838" gradientUnits="userSpaceOnUse">
<stop stop-color="#FFFA62"/>
<stop offset="1" stop-color="#F2EB04"/>
</linearGradient>
<linearGradient id="paint26_linear_1183_6294" x1="9.43284" y1="0" x2="9.43284" y2="18.7869" gradientUnits="userSpaceOnUse">
<stop stop-color="#FFFA62"/>
<stop offset="1" stop-color="#F2EB04"/>
</linearGradient>
<linearGradient id="paint27_linear_1183_6294" x1="9.39103" y1="0" x2="9.39103" y2="18.8705" gradientUnits="userSpaceOnUse">
<stop stop-color="#FFFA62"/>
<stop offset="1" stop-color="#F2EB04"/>
</linearGradient>
<linearGradient id="paint28_linear_1183_6294" x1="9.41141" y1="0" x2="9.41141" y2="18.8299" gradientUnits="userSpaceOnUse">
<stop stop-color="#FFFA62"/>
<stop offset="1" stop-color="#F2EB04"/>
</linearGradient>
<linearGradient id="paint29_linear_1183_6294" x1="9.41141" y1="0" x2="9.41141" y2="18.8299" gradientUnits="userSpaceOnUse">
<stop stop-color="#FFFA62"/>
<stop offset="1" stop-color="#F2EB04"/>
</linearGradient>
<linearGradient id="paint30_linear_1183_6294" x1="9.39103" y1="0" x2="9.39103" y2="18.8705" gradientUnits="userSpaceOnUse">
<stop stop-color="#FFFA62"/>
<stop offset="1" stop-color="#F2EB04"/>
</linearGradient>
<linearGradient id="paint31_linear_1183_6294" x1="9.43284" y1="0" x2="9.43284" y2="18.7869" gradientUnits="userSpaceOnUse">
<stop stop-color="#FFFA62"/>
<stop offset="1" stop-color="#F2EB04"/>
</linearGradient>
<linearGradient id="paint32_linear_1183_6294" x1="9.44192" y1="0" x2="9.44192" y2="18.7687" gradientUnits="userSpaceOnUse">
<stop stop-color="#FFFA62"/>
<stop offset="1" stop-color="#F2EB04"/>
</linearGradient>
<linearGradient id="paint33_linear_1183_6294" x1="9.38433" y1="0" x2="9.38433" y2="18.8838" gradientUnits="userSpaceOnUse">
<stop stop-color="#FFFA62"/>
<stop offset="1" stop-color="#F2EB04"/>
</linearGradient>
<linearGradient id="paint34_linear_1183_6294" x1="9.39337" y1="0" x2="9.39337" y2="18.8659" gradientUnits="userSpaceOnUse">
<stop stop-color="#FFFA62"/>
<stop offset="1" stop-color="#F2EB04"/>
</linearGradient>
<linearGradient id="paint35_linear_1183_6294" x1="9.43533" y1="0" x2="9.43533" y2="18.7819" gradientUnits="userSpaceOnUse">
<stop stop-color="#FFFA62"/>
<stop offset="1" stop-color="#F2EB04"/>
</linearGradient>
<linearGradient id="paint36_linear_1183_6294" x1="9.41493" y1="0" x2="9.41493" y2="18.8228" gradientUnits="userSpaceOnUse">
<stop stop-color="#FFFA62"/>
<stop offset="1" stop-color="#F2EB04"/>
</linearGradient>
<linearGradient id="paint37_linear_1183_6294" x1="142.459" y1="520.244" x2="526.462" y2="141.065" gradientUnits="userSpaceOnUse">
<stop stop-color="#F2EB04"/>
<stop offset="1" stop-color="#FFF935"/>
</linearGradient>
<clipPath id="clip0_1183_6294">
<rect width="667" height="823" fill="white"/>
</clipPath>
</defs>
</svg>
