<svg width="600" height="600" viewBox="0 0 600 600" fill="none" xmlns="http://www.w3.org/2000/svg">
<path d="M492.122 110.291C387.348 4.18592 216.397 3.10527 110.292 107.878C4.18579 212.65 3.10515 383.601 107.879 489.708C212.651 595.814 383.602 596.895 489.707 492.121C595.814 387.35 596.894 216.398 492.122 110.291Z" fill="#1F5254"/>
<path fill-rule="evenodd" clip-rule="evenodd" d="M184.26 538.381C129.998 511.992 86.3838 467.852 60.647 413.277L299.998 300.402L184.26 538.381ZM406.993 542.171C462.223 517.872 507.492 475.43 535.294 421.878L300.478 299.973L542.008 191.887C517.361 136.812 474.635 91.813 420.908 64.3497L300.467 299.966L300.427 299.947L406.993 542.171ZM63.2095 181.324C90.1551 127.337 134.742 84.178 189.578 59.0033L299.987 299.5L63.2095 181.324Z" fill="url(#paint0_radial_1229_6127)"/>
<path d="M382.221 188.605L374.836 195.728L371.753 190.818L384.686 178.346L387.141 182.303L391.395 205.886L386.226 210.87L382.221 188.605Z" fill="#1F5254"/>
<path d="M407.57 191.015C406.226 192.312 404.799 193.186 403.288 193.636C401.793 194.073 400.291 194.062 398.781 193.605C397.27 193.115 395.851 192.181 394.521 190.803C393.678 189.93 392.953 188.991 392.343 187.99C390.144 184.499 389.158 181.088 389.382 177.757C389.626 174.409 391.083 171.446 393.755 168.87C395.822 166.876 398.019 165.892 400.347 165.918C402.675 165.911 404.844 166.949 406.854 169.032C407.696 169.906 408.431 170.852 409.057 171.87C411.239 175.379 412.209 178.805 411.967 182.154C411.708 185.483 410.242 188.438 407.57 191.015ZM403.913 185.153C404.903 184.196 405.378 183.025 405.338 181.637C405.296 180.215 404.771 178.696 403.761 177.075C403.231 176.224 402.699 175.521 402.164 174.967C401.402 174.176 400.642 173.758 399.883 173.711C399.125 173.632 398.334 173.988 397.511 174.782C396.503 175.756 396.027 176.961 396.084 178.398C396.14 179.803 396.675 181.316 397.685 182.934C398.216 183.786 398.739 184.481 399.257 185.019C400.02 185.81 400.78 186.227 401.538 186.274C402.298 186.321 403.089 185.947 403.913 185.153Z" fill="#1F5254"/>
<path d="M425.546 173.677C424.202 174.974 422.775 175.848 421.264 176.299C419.771 176.735 418.267 176.725 416.756 176.267C415.247 175.777 413.827 174.843 412.497 173.467C411.656 172.592 410.929 171.653 410.319 170.652C408.121 167.161 407.134 163.75 407.36 160.419C407.601 157.071 409.058 154.108 411.73 151.532C413.797 149.538 415.995 148.554 418.323 148.58C420.65 148.573 422.82 149.611 424.83 151.695C425.673 152.568 426.407 153.516 427.032 154.533C429.214 158.041 430.184 161.468 429.943 164.816C429.684 168.147 428.218 171.101 425.546 173.677ZM421.888 167.815C422.879 166.859 423.356 165.687 423.314 164.3C423.274 162.879 422.747 161.358 421.737 159.738C421.207 158.886 420.675 158.184 420.141 157.629C419.378 156.838 418.618 156.421 417.86 156.374C417.102 156.294 416.311 156.652 415.487 157.445C414.479 158.418 414.002 159.623 414.06 161.061C414.117 162.465 414.651 163.978 415.661 165.596C416.191 166.448 416.715 167.144 417.234 167.681C417.996 168.472 418.756 168.889 419.515 168.936C420.273 168.983 421.064 168.609 421.888 167.815Z" fill="#1F5254"/>
<path d="M432.934 148.94C431.825 150.011 430.601 150.541 429.264 150.534C427.91 150.508 426.723 149.967 425.702 148.908C425.377 148.573 425.096 148.211 424.854 147.827C424.212 146.793 423.821 145.663 423.677 144.439C423.534 143.213 423.656 142.028 424.038 140.878C424.424 139.696 425.069 138.667 425.977 137.793C427.086 136.723 428.319 136.2 429.671 136.224C431.041 136.233 432.237 136.767 433.259 137.826C433.616 138.194 433.897 138.554 434.106 138.905C434.748 139.941 435.132 141.078 435.259 142.32C435.384 143.528 435.255 144.722 434.871 145.904C434.469 147.069 433.824 148.081 432.934 148.94ZM434.788 130.025L439.93 125.067L443.437 155.694L438.294 160.654L434.788 130.025ZM430.72 145.383C431.257 144.865 431.524 144.216 431.523 143.441C431.537 142.648 431.276 141.975 430.742 141.421C430.401 141.068 430.024 140.896 429.612 140.904C429.2 140.88 428.765 141.087 428.312 141.525C427.858 141.963 427.601 142.519 427.54 143.196C427.462 143.855 427.599 144.451 427.952 144.986C428.032 145.136 428.169 145.312 428.364 145.513C429.077 146.254 429.862 146.21 430.72 145.383ZM452.171 147.999C451.062 149.07 449.839 149.6 448.501 149.593C447.148 149.569 445.961 149.027 444.939 147.968C444.615 147.632 444.332 147.273 444.092 146.888C443.45 145.852 443.058 144.722 442.915 143.498C442.772 142.274 442.892 141.087 443.277 139.938C443.661 138.756 444.308 137.728 445.215 136.852C446.324 135.783 447.555 135.26 448.909 135.284C450.279 135.293 451.475 135.826 452.496 136.885C452.852 137.255 453.136 137.615 453.342 137.965C453.986 139.001 454.368 140.139 454.495 141.379C454.622 142.587 454.493 143.782 454.109 144.964C453.708 146.129 453.061 147.14 452.171 147.999ZM449.956 144.442C450.495 143.924 450.763 143.277 450.759 142.5C450.775 141.708 450.514 141.035 449.979 140.48C449.638 140.127 449.262 139.955 448.849 139.964C448.436 139.941 448.004 140.148 447.55 140.585C447.096 141.023 446.839 141.579 446.776 142.255C446.698 142.914 446.837 143.512 447.19 144.046C447.27 144.195 447.407 144.373 447.602 144.574C448.315 145.313 449.099 145.27 449.956 144.442Z" fill="#1F5254"/>
<path d="M391.293 236L388.671 238.528L385.735 233.818L388.357 231.29L386.575 228.434L390.582 224.569L392.364 227.424L395.011 224.872L397.948 229.582L395.3 232.134L397.082 234.99L393.073 238.856L391.293 236Z" fill="#1F5254"/>
<path d="M411.373 228.408C409.525 230.19 407.527 231.078 405.38 231.073C403.235 231.035 401.27 230.091 399.488 228.243C398.774 227.502 398.145 226.682 397.6 225.781C396.011 223.259 395.034 220.698 394.668 218.099C394.318 215.484 394.537 213.036 395.321 210.755C396.09 208.457 397.347 206.465 399.095 204.78C400.389 203.532 401.668 202.621 402.934 202.051L406.183 207.237C405.057 207.447 403.864 208.16 402.604 209.375C401.545 210.397 400.846 211.59 400.507 212.955C400.186 214.302 400.318 215.684 400.904 217.097C401.067 216.258 401.404 215.397 401.915 214.516C402.428 213.6 403.096 212.744 403.918 211.95C405.33 210.589 406.821 209.881 408.391 209.827C409.944 209.756 411.385 210.409 412.715 211.788C413.217 212.308 413.661 212.887 414.045 213.521C415.489 215.858 416.056 218.295 415.745 220.833C415.453 223.354 413.994 225.879 411.373 228.408ZM408.438 223.648C409.194 222.92 409.573 222.035 409.575 220.993C409.579 219.921 409.182 218.973 408.389 218.149C407.416 217.141 406.333 217.212 405.14 218.363C404.434 219.043 404.08 219.903 404.078 220.945C404.076 221.984 404.447 222.892 405.192 223.664C405.663 224.152 406.187 224.41 406.764 224.436C407.326 224.446 407.884 224.184 408.438 223.648Z" fill="#1F5254"/>
<path d="M428.432 211.955C427.086 213.252 425.659 214.126 424.148 214.577C422.655 215.013 421.153 215.003 419.642 214.545C418.132 214.055 416.711 213.122 415.383 211.745C414.54 210.87 413.813 209.931 413.205 208.93C411.005 205.439 410.018 202.028 410.244 198.697C410.486 195.349 411.942 192.387 414.615 189.81C416.682 187.816 418.879 186.832 421.207 186.858C423.536 186.851 425.704 187.889 427.714 189.972C428.557 190.846 429.293 191.792 429.917 192.811C432.1 196.319 433.07 199.746 432.827 203.094C432.57 206.425 431.104 209.379 428.432 211.955ZM424.773 206.093C425.765 205.137 426.24 203.965 426.198 202.578C426.158 201.156 425.633 199.636 424.621 198.016C424.093 197.164 423.561 196.462 423.025 195.907C422.264 195.116 421.502 194.699 420.744 194.652C419.986 194.572 419.195 194.928 418.371 195.723C417.363 196.696 416.888 197.901 416.944 199.339C417.001 200.744 417.535 202.256 418.547 203.875C419.076 204.726 419.601 205.422 420.119 205.959C420.88 206.75 421.642 207.167 422.4 207.214C423.159 207.261 423.95 206.887 424.773 206.093Z" fill="#1F5254"/>
<path d="M446.408 194.617C445.064 195.914 443.637 196.788 442.126 197.24C440.631 197.675 439.129 197.664 437.618 197.207C436.108 196.717 434.689 195.783 433.359 194.407C432.516 193.532 431.791 192.595 431.181 191.592C428.982 188.101 427.996 184.69 428.22 181.359C428.464 178.011 429.92 175.048 432.592 172.472C434.66 170.478 436.857 169.494 439.185 169.52C441.513 169.513 443.682 170.551 445.692 172.635C446.533 173.508 447.269 174.456 447.895 175.473C450.076 178.981 451.047 182.407 450.805 185.756C450.546 189.087 449.08 192.04 446.408 194.617ZM442.75 188.755C443.741 187.799 444.216 186.627 444.176 185.239C444.134 183.819 443.609 182.298 442.599 180.678C442.069 179.826 441.537 179.123 441.002 178.569C440.24 177.78 439.48 177.361 438.721 177.314C437.963 177.234 437.172 177.592 436.349 178.385C435.341 179.358 434.865 180.563 434.922 182.001C434.978 183.405 435.513 184.918 436.523 186.538C437.053 187.388 437.577 188.084 438.095 188.621C438.858 189.412 439.618 189.829 440.376 189.876C441.135 189.923 441.926 189.549 442.75 188.755Z" fill="#1F5254"/>
<path d="M474.047 167.961C472.468 169.483 470.806 170.551 469.061 171.165C467.333 171.761 465.631 171.862 463.953 171.469C462.275 171.041 460.74 170.106 459.348 168.659C458.651 167.938 458.03 167.126 457.484 166.224C455.301 162.75 454.44 159.233 454.901 155.676C455.346 152.1 457.123 148.813 460.231 145.816C461.509 144.583 462.773 143.608 464.024 142.886C465.276 142.167 466.43 141.749 467.489 141.636L471.1 147.448C469.942 147.493 468.805 147.811 467.689 148.403C466.589 148.976 465.434 149.847 464.224 151.014C462.526 152.651 461.589 154.303 461.41 155.967C461.231 157.63 461.695 159.341 462.802 161.094C463.299 161.912 463.809 162.59 464.327 163.128C465.267 164.103 466.234 164.517 467.227 164.369C468.219 164.223 469.398 163.493 470.759 162.178C471.481 161.483 471.997 160.789 472.307 160.103L470.622 157.396L468.202 159.731L465.723 155.748L472.908 148.818L479.526 159.465C478.596 162.503 476.769 165.334 474.047 167.961Z" fill="#1F5254"/>
<path d="M491.729 150.908C490.149 152.431 488.487 153.498 486.741 154.112C485.013 154.708 483.311 154.809 481.634 154.416C479.958 153.988 478.423 153.053 477.028 151.607C476.331 150.885 475.711 150.073 475.165 149.171C472.983 145.698 472.121 142.181 472.581 138.624C473.026 135.048 474.803 131.76 477.912 128.763C479.189 127.53 480.453 126.555 481.705 125.834C482.957 125.114 484.111 124.697 485.17 124.584L488.781 130.395C487.624 130.441 486.487 130.759 485.37 131.35C484.269 131.924 483.115 132.795 481.905 133.961C480.208 135.599 479.269 137.25 479.09 138.914C478.913 140.578 479.377 142.288 480.484 144.041C480.982 144.86 481.489 145.538 482.007 146.075C482.948 147.05 483.914 147.464 484.907 147.316C485.902 147.17 487.079 146.44 488.44 145.127C489.163 144.43 489.679 143.737 489.989 143.05L488.304 140.343L485.884 142.678L483.405 138.695L490.589 131.765L497.207 142.412C496.277 145.451 494.452 148.281 491.729 150.908Z" fill="#1F5254"/>
<path d="M430.289 309.503L434.487 306.607C435.645 305.818 436.501 305.249 437.054 304.9C439.39 303.346 441.082 302.137 442.125 301.272C443.194 300.385 443.842 299.479 444.07 298.556C444.153 298.278 444.199 298.024 444.211 297.791C444.268 296.484 443.319 295.787 441.36 295.698C440.24 295.648 439.041 295.804 437.763 296.167C436.483 296.531 435.268 297.059 434.115 297.756L435.894 290.964C437.163 290.274 438.589 289.754 440.171 289.405C441.753 289.055 443.359 288.918 444.993 288.991C446.532 289.061 447.862 289.389 448.98 289.977C450.099 290.566 450.939 291.352 451.502 292.334C452.09 293.295 452.357 294.372 452.304 295.561C452.284 296.004 452.203 296.515 452.06 297.092C451.577 298.965 450.77 300.552 449.637 301.856C448.526 303.161 446.909 304.538 444.786 305.985L441.567 308.189L449.824 308.561L448.38 314.175L429.312 313.316L430.289 309.503Z" fill="#2FEB77"/>
<path d="M457.766 315.124C456.319 315.06 454.927 314.832 453.588 314.444C452.249 314.081 451.196 313.601 450.429 313.005L452.036 306.908C452.913 307.671 453.972 308.281 455.213 308.733C456.479 309.189 457.707 309.442 458.896 309.496C461.695 309.622 463.336 308.726 463.819 306.809C463.902 306.53 463.949 306.277 463.96 306.044C463.989 305.367 463.732 304.853 463.188 304.502C462.644 304.126 461.754 303.911 460.518 303.855C459.747 303.82 458.892 303.864 457.952 303.984C457.013 304.083 456.187 304.244 455.476 304.469L453.235 302.861L457.562 290.084L473.901 290.821L472.456 296.435L462.974 296.007L461.929 298.975C462.943 298.787 464.009 298.718 465.128 298.768C467.204 298.862 468.826 299.437 469.994 300.496C471.161 301.553 471.703 303.015 471.62 304.881C471.59 305.51 471.489 306.195 471.315 306.936C470.556 309.799 469.151 311.934 467.101 313.337C465.052 314.717 461.94 315.312 457.766 315.124Z" fill="#2FEB77"/>
<path d="M484.213 316.317C482.021 316.217 480.102 315.746 478.457 314.9C476.837 314.056 475.592 312.89 474.725 311.402C473.881 309.891 473.504 308.133 473.595 306.127C473.64 305.124 473.803 304.114 474.081 303.099C475.102 299.125 477.063 296.082 479.963 293.968C482.864 291.833 486.472 290.862 490.787 291.056C492.56 291.136 494.137 291.383 495.521 291.795C496.904 292.209 498.001 292.76 498.811 293.452L497.076 300.07C496.247 299.26 495.235 298.653 494.038 298.25C492.864 297.847 491.439 297.607 489.759 297.53C487.403 297.424 485.559 297.88 484.227 298.893C482.897 299.909 481.976 301.421 481.465 303.433C481.213 304.356 481.07 305.19 481.035 305.936C480.975 307.29 481.34 308.276 482.129 308.897C482.92 309.516 484.259 309.868 486.148 309.954C487.151 309.999 488.008 309.898 488.721 309.649L489.526 306.565L486.167 306.414L487.355 301.875L497.325 302.325L494.149 314.451C491.305 315.866 487.993 316.487 484.213 316.317Z" fill="#2FEB77"/>
<path d="M508.754 317.424C506.56 317.325 504.642 316.852 502.998 316.007C501.376 315.162 500.131 313.997 499.264 312.509C498.42 310.999 498.045 309.239 498.135 307.235C498.18 306.232 498.342 305.222 498.622 304.206C499.642 300.232 501.602 297.188 504.503 295.076C507.403 292.939 511.012 291.969 515.327 292.164C517.099 292.244 518.677 292.489 520.061 292.903C521.445 293.316 522.542 293.867 523.352 294.559L521.615 301.176C520.788 300.368 519.774 299.761 518.578 299.356C517.405 298.952 515.977 298.713 514.298 298.638C511.942 298.532 510.1 298.986 508.768 300.001C507.436 301.016 506.515 302.529 506.004 304.538C505.752 305.463 505.609 306.298 505.576 307.043C505.515 308.396 505.878 309.383 506.669 310.002C507.459 310.623 508.799 310.976 510.687 311.061C511.69 311.106 512.549 311.004 513.26 310.755L514.067 307.673L510.708 307.52L511.894 302.981L521.866 303.431L518.689 315.559C515.843 316.972 512.532 317.594 508.754 317.424Z" fill="#2FEB77"/>
<path d="M383.234 407.521C382.464 406.487 381.81 405.459 381.271 404.437C380.731 403.417 380.385 402.504 380.23 401.703L385.915 398.443C386.141 399.745 386.568 401.009 387.194 402.233C387.838 403.476 388.573 404.557 389.399 405.479C390.005 406.157 390.544 406.583 391.014 406.758C391.501 406.949 391.965 406.925 392.406 406.685C392.492 406.64 392.587 406.572 392.691 406.478C393.022 406.183 393.152 405.752 393.084 405.185C393.017 404.62 392.766 403.604 392.333 402.142C391.789 400.31 391.601 398.771 391.768 397.523C391.953 396.294 392.521 395.249 393.477 394.392C393.808 394.097 394.247 393.782 394.795 393.448C396.365 392.542 398.103 392.209 400.009 392.445C401.947 392.683 403.781 393.436 405.515 394.705L408.536 392.986L411.9 396.743L409.11 398.351C410.266 399.886 411.06 401.508 411.497 403.219L405.991 406.363C405.595 404.243 404.703 402.408 403.317 400.859C402.662 400.129 402.003 399.639 401.339 399.387C400.708 399.138 400.158 399.223 399.689 399.644C399.357 399.94 399.244 400.373 399.345 400.939C399.463 401.492 399.786 402.535 400.313 404.069C400.887 405.969 401.111 407.476 400.982 408.594C400.888 409.714 400.381 410.685 399.459 411.511C398.955 411.963 398.378 412.37 397.73 412.732C396.024 413.696 394.235 414.061 392.363 413.825C390.506 413.608 388.637 412.728 386.753 411.188L383.808 412.886L380.442 409.129L383.234 407.521Z" fill="#1F5254"/>
<path d="M410.884 412.664L404.535 410.828L410.554 407.363L418.591 409.614L422.61 414.101L400.919 426.577L396.081 421.179L410.884 412.664Z" fill="#1F5254"/>
<path d="M404.173 430.209C403.784 429.774 403.594 429.301 403.607 428.79C403.636 428.262 403.85 427.818 404.25 427.46C404.841 426.932 405.557 426.697 406.397 426.759C407.27 426.824 407.963 427.144 408.476 427.717C408.867 428.152 409.046 428.634 409.018 429.16C409.006 429.673 408.784 430.123 408.349 430.513C407.774 431.027 407.059 431.243 406.204 431.163C405.364 431.1 404.688 430.782 404.173 430.209Z" fill="#1F5254"/>
<path d="M411.699 439.395C410.732 438.317 409.919 437.164 409.258 435.937C408.582 434.727 408.185 433.639 408.074 432.672L413.552 429.551C413.622 430.711 413.928 431.895 414.474 433.098C415.035 434.32 415.713 435.374 416.508 436.26C418.378 438.346 420.167 438.892 421.874 437.894C422.13 437.759 422.345 437.615 422.519 437.458C423.023 437.006 423.209 436.462 423.079 435.827C422.966 435.175 422.497 434.39 421.671 433.468C421.156 432.895 420.527 432.314 419.783 431.728C419.055 431.125 418.361 430.65 417.702 430.299L417.281 427.573L429.433 421.716L440.348 433.898L435.327 436.796L428.993 429.727L426.142 431.059C426.987 431.652 427.783 432.364 428.531 433.199C429.918 434.748 430.642 436.307 430.704 437.882C430.767 439.456 430.103 440.867 428.712 442.114C428.242 442.534 427.683 442.941 427.032 443.336C424.456 444.798 421.949 445.288 419.512 444.808C417.092 444.311 414.487 442.507 411.699 439.395Z" fill="#1F5254"/>
<path d="M443.035 436.895L447.218 441.564L438.905 453.857L456.098 451.475L460.751 456.667L439.059 469.142L434.548 464.109L444.153 458.558L431.207 460.378L429.197 458.136L435.459 448.856L425.854 454.405L421.344 449.372L443.035 436.895Z" fill="#1F5254"/>
<path d="M284.461 437.183C284.418 435.735 284.539 434.33 284.826 432.967C285.089 431.604 285.489 430.518 286.024 429.708L292.225 430.853C291.53 431.785 291.001 432.887 290.643 434.16C290.283 435.455 290.123 436.698 290.158 437.887C290.242 440.688 291.259 442.258 293.208 442.597C293.489 442.658 293.748 442.686 293.981 442.679C294.657 442.658 295.151 442.364 295.461 441.794C295.794 441.224 295.942 440.32 295.906 439.082C295.883 438.312 295.775 437.463 295.584 436.535C295.415 435.605 295.193 434.795 294.915 434.101L296.351 431.745L309.415 435.104L309.906 451.451L304.198 450.431L303.915 440.945L300.878 440.125C301.14 441.121 301.288 442.18 301.323 443.299C301.385 445.377 300.932 447.037 299.965 448.28C298.998 449.525 297.582 450.173 295.714 450.231C295.083 450.248 294.393 450.199 293.642 450.081C290.73 449.539 288.496 448.297 286.944 446.357C285.414 444.419 284.586 441.359 284.461 437.183Z" fill="#2FEB77"/>
<path d="M285.198 461.79C285.142 459.923 285.455 458.28 286.136 456.858C286.818 455.458 287.837 454.355 289.191 453.543C290.568 452.753 292.214 452.331 294.128 452.274C295.342 452.237 296.524 452.329 297.675 452.552C301.738 453.271 304.926 454.834 307.24 457.242C309.556 459.671 310.769 462.741 310.88 466.453C310.966 469.323 310.216 471.611 308.633 473.316C307.073 475.046 304.846 475.953 301.952 476.04C300.738 476.075 299.544 475.983 298.37 475.762C294.307 475.018 291.117 473.433 288.802 471.002C286.51 468.572 285.309 465.502 285.198 461.79ZM291.997 463.024C292.039 464.401 292.586 465.54 293.642 466.442C294.719 467.369 296.199 468.002 298.078 468.342C299.064 468.523 299.942 468.601 300.712 468.579C301.809 468.546 302.63 468.264 303.175 467.734C303.744 467.226 304.012 466.4 303.977 465.258C303.935 463.857 303.363 462.694 302.261 461.771C301.183 460.869 299.704 460.246 297.824 459.905C296.839 459.725 295.971 459.646 295.225 459.669C294.128 459.7 293.308 459.982 292.762 460.512C292.218 461.042 291.962 461.88 291.997 463.024Z" fill="#2FEB77"/>
<path d="M286.001 488.61C285.935 486.416 286.262 484.467 286.982 482.765C287.703 481.084 288.772 479.756 290.191 478.778C291.634 477.824 293.36 477.318 295.366 477.257C296.369 477.228 297.388 477.313 298.423 477.516C302.461 478.236 305.644 479.962 307.969 482.695C310.316 485.428 311.553 488.954 311.684 493.271C311.736 495.046 311.609 496.638 311.301 498.048C310.992 499.458 310.524 500.593 309.897 501.454L303.167 500.219C303.911 499.333 304.439 498.277 304.754 497.053C305.069 495.852 305.201 494.411 305.15 492.732C305.079 490.374 304.488 488.57 303.375 487.318C302.265 486.066 300.686 485.261 298.643 484.903C297.705 484.721 296.861 484.641 296.114 484.663C294.76 484.703 293.803 485.141 293.245 485.976C292.685 486.81 292.435 488.172 292.491 490.061C292.522 491.066 292.687 491.913 292.988 492.605L296.124 493.177L296.023 489.816L300.637 490.659L300.936 500.637L288.607 498.376C286.983 495.647 286.114 492.391 286.001 488.61Z" fill="#2FEB77"/>
<path d="M286.736 513.164C286.67 510.97 286.997 509.021 287.717 507.318C288.438 505.638 289.508 504.31 290.926 503.333C292.369 502.379 294.095 501.871 296.102 501.812C297.105 501.78 298.123 501.867 299.158 502.069C303.196 502.791 306.38 504.517 308.704 507.25C311.051 509.983 312.289 513.508 312.419 517.825C312.471 519.598 312.344 521.191 312.037 522.602C311.727 524.012 311.26 525.148 310.632 526.008L303.902 524.772C304.646 523.885 305.175 522.83 305.489 521.606C305.804 520.405 305.936 518.965 305.886 517.284C305.815 514.927 305.223 513.124 304.111 511.872C303 510.621 301.421 509.816 299.379 509.456C298.44 509.273 297.597 509.193 296.849 509.216C295.495 509.258 294.539 509.694 293.981 510.529C293.421 511.363 293.171 512.726 293.226 514.616C293.257 515.619 293.423 516.467 293.723 517.159L296.86 517.731L296.759 514.371L301.373 515.212L301.672 525.189L289.342 522.931C287.719 520.2 286.849 516.944 286.736 513.164Z" fill="#2FEB77"/>
<path d="M201.978 377.327C202.985 376.52 203.988 375.828 204.987 375.251C205.989 374.676 206.888 374.295 207.684 374.111L211.15 379.672C209.857 379.947 208.611 380.42 207.409 381.091C206.191 381.779 205.137 382.553 204.247 383.412C203.591 384.045 203.185 384.597 203.028 385.074C202.853 385.566 202.894 386.03 203.152 386.463C203.199 386.546 203.272 386.638 203.369 386.739C203.677 387.059 204.113 387.174 204.675 387.085C205.238 386.997 206.243 386.71 207.687 386.223C209.499 385.613 211.031 385.368 212.284 385.489C213.52 385.627 214.582 386.159 215.474 387.082C215.782 387.402 216.114 387.829 216.467 388.363C217.43 389.9 217.828 391.624 217.661 393.537C217.494 395.482 216.808 397.344 215.603 399.123L217.432 402.078L213.802 405.579L212.093 402.848C210.601 404.06 209.009 404.915 207.315 405.412L203.97 400.026C206.076 399.552 207.877 398.594 209.372 397.153C210.078 396.471 210.545 395.795 210.771 395.122C210.997 394.481 210.891 393.935 210.455 393.481C210.146 393.161 209.711 393.064 209.148 393.186C208.6 393.323 207.569 393.685 206.057 394.269C204.179 394.912 202.679 395.19 201.557 395.103C200.436 395.051 199.445 394.578 198.586 393.688C198.117 393.199 197.689 392.64 197.305 392.005C196.278 390.334 195.848 388.561 196.013 386.682C196.163 384.818 196.973 382.916 198.446 380.978L196.639 378.097L200.269 374.598L201.978 377.327Z" fill="#1F5254"/>
<path d="M186.422 392.235C187.464 391.23 188.585 390.375 189.786 389.671C190.972 388.949 192.045 388.514 193.006 388.367L196.327 393.726C195.169 393.838 193.999 394.187 192.815 394.778C191.615 395.383 190.588 396.1 189.731 396.925C187.714 398.871 187.234 400.679 188.295 402.349C188.439 402.6 188.592 402.808 188.754 402.977C189.223 403.464 189.774 403.631 190.404 403.478C191.05 403.34 191.819 402.843 192.71 401.983C193.265 401.449 193.821 400.799 194.379 400.032C194.955 399.283 195.405 398.573 195.732 397.902L198.441 397.381L204.739 409.309L192.966 420.663L189.885 415.753L196.716 409.164L195.282 406.364C194.72 407.229 194.037 408.05 193.23 408.829C191.735 410.272 190.202 411.052 188.63 411.172C187.059 411.292 185.626 410.68 184.329 409.336C183.891 408.883 183.463 408.339 183.046 407.704C181.49 405.181 180.908 402.694 181.299 400.241C181.706 397.805 183.413 395.136 186.422 392.235Z" fill="#1F5254"/>
<path d="M168.701 409.326C170.045 408.029 171.472 407.154 172.983 406.702C174.478 406.268 175.98 406.278 177.491 406.735C179.001 407.224 180.42 408.158 181.75 409.536C182.593 410.411 183.318 411.348 183.928 412.349C186.127 415.84 187.113 419.253 186.889 422.584C186.646 425.93 185.189 428.893 182.517 431.471C180.45 433.463 178.252 434.447 175.924 434.423C173.596 434.43 171.427 433.392 169.417 431.307C168.574 430.435 167.84 429.487 167.214 428.468C165.033 424.962 164.063 421.535 164.304 418.187C164.563 414.856 166.029 411.902 168.701 409.326ZM172.359 415.186C171.368 416.144 170.893 417.316 170.933 418.703C170.973 420.124 171.5 421.645 172.51 423.265C173.04 424.115 173.572 424.819 174.108 425.374C174.869 426.163 175.629 426.582 176.387 426.629C177.146 426.709 177.936 426.351 178.76 425.556C179.768 424.585 180.244 423.38 180.187 421.942C180.13 420.537 179.596 419.025 178.586 417.405C178.056 416.553 177.532 415.859 177.013 415.32C176.251 414.531 175.491 414.112 174.732 414.067C173.974 414.02 173.183 414.393 172.359 415.186Z" fill="#1F5254"/>
<path d="M150.723 426.662C152.069 425.367 153.496 424.493 155.007 424.041C156.5 423.606 158.004 423.616 159.515 424.074C161.024 424.562 162.444 425.496 163.772 426.874C164.615 427.749 165.342 428.686 165.95 429.687C168.15 433.178 169.137 436.589 168.911 439.922C168.669 443.268 167.213 446.231 164.541 448.809C162.473 450.801 160.276 451.785 157.948 451.761C155.62 451.768 153.451 450.73 151.441 448.645C150.598 447.771 149.864 446.825 149.238 445.806C147.057 442.3 146.086 438.872 146.328 435.525C146.587 432.194 148.051 429.24 150.723 426.662ZM154.383 432.524C153.392 433.481 152.915 434.654 152.957 436.041C152.997 437.462 153.522 438.983 154.534 440.601C155.064 441.453 155.596 442.157 156.13 442.712C156.891 443.501 157.653 443.92 158.411 443.967C159.169 444.047 159.96 443.689 160.784 442.894C161.792 441.923 162.268 440.718 162.211 439.28C162.154 437.875 161.62 436.363 160.608 434.743C160.08 433.891 159.555 433.197 159.037 432.658C158.275 431.869 157.515 431.45 156.756 431.403C155.998 431.358 155.207 431.732 154.383 432.524Z" fill="#1F5254"/>
<path d="M154.115 458.134L148.896 463.167L143.77 454.925L143.478 468.393L137.327 474.326L137.68 457.489L123.584 453.569L129.735 447.637L141.169 450.815L135.633 441.947L140.851 436.916L154.115 458.134Z" fill="#1F5254"/>
<path d="M157.674 304.029L167.935 304.097L166.706 309.762L148.74 309.642L149.752 305.096L163.192 285.258L170.372 285.307L157.674 304.029Z" fill="#2FEB77"/>
<path d="M145.013 284.612C146.459 284.622 147.86 284.794 149.211 285.13C150.564 285.443 151.635 285.882 152.426 286.447L151.054 292.602C150.148 291.873 149.065 291.305 147.808 290.9C146.525 290.495 145.289 290.288 144.098 290.279C141.298 290.262 139.691 291.22 139.283 293.155C139.21 293.434 139.173 293.69 139.171 293.925C139.168 294.601 139.444 295.105 140.002 295.435C140.56 295.79 141.458 295.971 142.695 295.98C143.465 295.985 144.319 295.908 145.253 295.75C146.188 295.616 147.007 295.423 147.709 295.171L150.011 296.692L146.178 309.627L129.822 309.517L131.051 303.852L140.541 303.914L141.471 300.908C140.467 301.136 139.403 301.246 138.283 301.239C136.204 301.225 134.563 300.712 133.354 299.7C132.148 298.686 131.55 297.247 131.562 295.38C131.565 294.749 131.64 294.06 131.786 293.315C132.436 290.423 133.758 288.238 135.752 286.757C137.746 285.298 140.833 284.584 145.013 284.612Z" fill="#2FEB77"/>
<path d="M118.537 284.436C120.733 284.45 122.668 284.848 124.344 285.63C125.996 286.411 127.285 287.529 128.209 288.984C129.109 290.46 129.554 292.202 129.54 294.21C129.533 295.215 129.41 296.23 129.17 297.256C128.302 301.265 126.46 304.382 123.643 306.604C120.827 308.85 117.26 309.959 112.939 309.929C111.164 309.919 109.579 309.733 108.181 309.373C106.782 309.013 105.664 308.504 104.828 307.845L106.309 301.166C107.168 301.941 108.202 302.509 109.414 302.868C110.603 303.226 112.037 303.41 113.718 303.42C116.077 303.436 117.901 302.913 119.193 301.847C120.484 300.781 121.347 299.234 121.78 297.205C121.997 296.273 122.107 295.434 122.112 294.686C122.12 293.332 121.719 292.36 120.905 291.771C120.092 291.181 118.741 290.881 116.849 290.869C115.844 290.862 114.993 290.997 114.29 291.272L113.604 294.384L116.966 294.406L115.954 298.989L105.973 298.921L108.682 286.682C111.47 285.159 114.756 284.41 118.537 284.436Z" fill="#2FEB77"/>
<path d="M93.9741 284.273C96.1681 284.287 98.103 284.685 99.7789 285.467C101.432 286.248 102.72 287.365 103.645 288.819C104.546 290.297 104.989 292.038 104.975 294.046C104.968 295.051 104.845 296.065 104.605 297.091C103.737 301.101 101.896 304.218 99.08 306.44C96.2619 308.686 92.6946 309.795 88.3754 309.766C86.6011 309.755 85.0146 309.569 83.6161 309.21C82.2175 308.85 81.1002 308.34 80.2642 307.681L81.7445 301.002C82.6031 301.778 83.6384 302.346 84.8501 302.704C86.0386 303.062 87.4733 303.247 89.1543 303.257C91.5124 303.273 93.3378 302.748 94.6277 301.684C95.9194 300.618 96.7818 299.071 97.2164 297.042C97.4319 296.11 97.5432 295.27 97.5484 294.523C97.5571 293.168 97.1555 292.197 96.3419 291.607C95.5283 291.018 94.1757 290.717 92.2843 290.705C91.2812 290.698 90.4277 290.834 89.7256 291.108L89.0394 294.22L92.4007 294.243L91.3907 298.824L81.4091 298.758L84.1174 286.519C86.9061 284.996 90.1915 284.247 93.9741 284.273Z" fill="#2FEB77"/>
<path d="M212.4 214.307L218.811 215.908L212.923 219.592L204.809 217.636L200.628 213.3L221.847 200.037L226.88 205.256L212.4 214.307Z" fill="#1F5254"/>
<path d="M212.567 189.659C213.864 191.004 214.738 192.432 215.19 193.942C215.625 195.436 215.615 196.938 215.157 198.449C214.667 199.959 213.734 201.38 212.357 202.708C211.482 203.551 210.545 204.278 209.542 204.886C206.051 207.085 202.64 208.073 199.309 207.847C195.961 207.605 192.999 206.148 190.422 203.476C188.428 201.409 187.444 199.212 187.47 196.884C187.463 194.554 188.501 192.386 190.586 190.377C191.458 189.534 192.406 188.8 193.423 188.174C196.931 185.991 200.358 185.022 203.706 185.264C207.037 185.521 209.991 186.987 212.567 189.659ZM206.705 193.318C205.749 192.327 204.577 191.851 203.19 191.893C201.769 191.933 200.248 192.458 198.628 193.47C197.776 193.998 197.074 194.53 196.519 195.065C195.73 195.827 195.311 196.588 195.264 197.346C195.184 198.104 195.542 198.895 196.335 199.719C197.308 200.728 198.513 201.202 199.951 201.147C201.356 201.089 202.868 200.556 204.488 199.544C205.338 199.015 206.034 198.49 206.571 197.972C207.362 197.211 207.779 196.449 207.826 195.691C207.873 194.933 207.499 194.141 206.705 193.318Z" fill="#1F5254"/>
<path d="M195.229 171.683C196.526 173.027 197.401 174.454 197.853 175.966C198.287 177.46 198.277 178.962 197.82 180.473C197.331 181.983 196.396 183.402 195.019 184.732C194.144 185.575 193.207 186.3 192.204 186.91C188.713 189.109 185.302 190.095 181.971 189.871C178.625 189.629 175.662 188.171 173.084 185.499C171.09 183.431 170.106 181.234 170.132 178.906C170.125 176.578 171.163 174.409 173.248 172.399C174.12 171.558 175.068 170.822 176.087 170.196C179.593 168.015 183.02 167.044 186.368 167.288C189.699 167.545 192.653 169.011 195.229 171.683ZM189.367 175.342C188.411 174.35 187.239 173.875 185.852 173.915C184.431 173.957 182.91 174.482 181.29 175.492C180.438 176.022 179.736 176.554 179.181 177.089C178.392 177.851 177.973 178.611 177.926 179.37C177.846 180.128 178.204 180.919 178.999 181.742C179.97 182.75 181.175 183.226 182.613 183.171C184.018 183.113 185.53 182.578 187.15 181.568C188.002 181.038 188.696 180.514 189.235 179.996C190.024 179.233 190.441 178.473 190.488 177.715C190.535 176.956 190.161 176.165 189.367 175.342Z" fill="#1F5254"/>
<path d="M177.892 153.707C179.189 155.05 180.063 156.478 180.515 157.989C180.95 159.484 180.939 160.986 180.482 162.496C179.994 164.007 179.06 165.426 177.681 166.756C176.807 167.597 175.87 168.324 174.869 168.934C171.378 171.133 167.967 172.119 164.634 171.895C161.287 171.651 158.325 170.194 155.747 167.522C153.755 165.455 152.771 163.258 152.795 160.93C152.788 158.602 153.826 156.433 155.91 154.423C156.785 153.58 157.73 152.846 158.749 152.22C162.256 150.038 165.682 149.068 169.031 149.31C172.362 149.569 175.315 151.035 177.892 153.707ZM172.031 157.364C171.075 156.373 169.902 155.899 168.514 155.939C167.094 155.979 165.573 156.506 163.953 157.516C163.102 158.046 162.398 158.578 161.844 159.113C161.054 159.875 160.635 160.634 160.589 161.392C160.509 162.152 160.867 162.941 161.661 163.766C162.633 164.774 163.838 165.25 165.276 165.193C166.68 165.135 168.193 164.602 169.813 163.592C170.665 163.061 171.358 162.538 171.897 162.018C172.687 161.257 173.106 160.497 173.151 159.737C173.198 158.979 172.824 158.188 172.031 157.364Z" fill="#1F5254"/>
<path d="M153.156 146.32C154.225 147.429 154.755 148.653 154.748 149.99C154.724 151.344 154.182 152.531 153.123 153.552C152.787 153.877 152.428 154.159 152.043 154.4C151.007 155.042 149.877 155.433 148.653 155.577C147.429 155.72 146.242 155.6 145.093 155.216C143.911 154.83 142.883 154.185 142.007 153.277C140.938 152.168 140.415 150.937 140.439 149.583C140.448 148.213 140.981 147.017 142.04 145.996C142.41 145.638 142.77 145.357 143.12 145.148C144.156 144.507 145.294 144.122 146.534 143.997C147.742 143.87 148.937 143.999 150.119 144.383C151.284 144.785 152.295 145.43 153.156 146.32ZM134.241 144.468L129.281 139.326L159.908 135.818L164.868 140.96L134.241 144.468ZM149.597 148.535C149.079 147.997 148.432 147.73 147.655 147.731C146.863 147.718 146.19 147.978 145.635 148.512C145.282 148.853 145.11 149.23 145.119 149.642C145.096 150.056 145.303 150.489 145.74 150.942C146.178 151.396 146.734 151.653 147.41 151.714C148.069 151.793 148.667 151.655 149.201 151.302C149.35 151.222 149.528 151.085 149.729 150.89C150.468 150.177 150.425 149.392 149.597 148.535ZM152.215 127.083C153.285 128.193 153.817 129.416 153.808 130.753C153.784 132.106 153.243 133.293 152.184 134.316C151.847 134.639 151.487 134.922 151.103 135.162C150.068 135.804 148.938 136.197 147.713 136.339C146.489 136.482 145.301 136.362 144.152 135.978C142.972 135.593 141.943 134.947 141.068 134.039C139.997 132.93 139.476 131.699 139.5 130.345C139.507 128.975 140.041 127.779 141.1 126.758C141.47 126.402 141.83 126.119 142.181 125.912C143.215 125.268 144.354 124.886 145.595 124.759C146.802 124.632 147.996 124.761 149.178 125.147C150.345 125.547 151.357 126.193 152.215 127.083ZM148.658 129.298C148.139 128.759 147.492 128.492 146.717 128.495C145.924 128.481 145.249 128.74 144.695 129.276C144.342 129.616 144.17 129.992 144.18 130.406C144.156 130.818 144.363 131.251 144.801 131.704C145.237 132.158 145.795 132.415 146.47 132.478C147.129 132.556 147.727 132.419 148.26 132.064C148.412 131.984 148.587 131.847 148.789 131.652C149.528 130.939 149.484 130.155 148.658 129.298Z" fill="#1F5254"/>
<path d="M291.082 147.427C291.011 149.015 290.778 150.558 290.383 152.059C290.013 153.538 289.55 154.698 288.999 155.537L282.657 153.886C283.408 152.798 283.987 151.596 284.397 150.282C284.808 148.945 285.041 147.659 285.096 146.423C285.188 144.394 284.651 143.352 283.485 143.3C283.019 143.279 282.61 143.505 282.263 143.982C281.891 144.432 281.336 145.353 280.595 146.746C279.702 148.436 278.77 149.667 277.8 150.442C276.807 151.191 275.67 151.537 274.387 151.48C273.968 151.461 273.445 151.379 272.821 151.235C270.58 150.642 268.827 149.336 267.564 147.316C266.298 145.296 265.735 142.77 265.87 139.738C265.94 138.198 266.129 136.863 266.437 135.733C266.722 134.599 267.155 133.544 267.736 132.565L273.869 134.173C272.67 135.919 272.021 137.854 271.925 139.975C271.88 140.978 272.005 141.814 272.303 142.481C272.577 143.125 273.019 143.46 273.626 143.488C274.045 143.507 274.417 143.3 274.74 142.871C275.063 142.419 275.509 141.621 276.075 140.477L276.385 139.825C277.282 138.043 278.168 136.797 279.041 136.089C279.893 135.355 280.936 135.016 282.172 135.072C282.826 135.102 283.509 135.215 284.225 135.411C286.558 136.006 288.325 137.266 289.524 139.19C290.724 141.113 291.242 143.86 291.082 147.427Z" fill="#2FEB77"/>
<path d="M266.907 128.419L267.232 121.176L291.454 127.454L291.129 134.697L266.907 128.419Z" fill="#2FEB77"/>
<path d="M267.375 118.023L267.691 110.99L280.716 106.669L268.034 103.364L268.361 96.1211L292.583 102.401L292.268 109.398L279.24 113.789L291.924 117.059L291.597 124.302L267.375 118.023Z" fill="#2FEB77"/>
<path d="M299.633 174.616L300.209 161.845C300.294 159.932 300.831 158.38 301.82 157.186C302.81 155.967 304.145 155.397 305.824 155.471C306.243 155.491 306.742 155.572 307.321 155.715C308.291 155.969 309.193 156.429 310.028 157.099C310.864 157.744 311.528 158.545 312.024 159.501C312.432 158.726 312.948 158.164 313.571 157.818C314.172 157.448 314.904 157.283 315.766 157.321C316.351 157.347 316.907 157.431 317.439 157.572C319.772 158.192 321.552 159.381 322.781 161.142C324.012 162.881 324.57 165.021 324.455 167.564L323.856 180.893L299.633 174.616ZM309.513 166.191C309.55 165.397 309.404 164.748 309.075 164.242C308.748 163.736 308.202 163.385 307.441 163.187C307.118 163.103 306.85 163.055 306.639 163.046C306.151 163.023 305.805 163.171 305.603 163.489C305.379 163.808 305.25 164.34 305.216 165.085L305.054 168.689L309.35 169.83L309.513 166.191ZM319.271 168.277C319.313 167.321 319.172 166.579 318.845 166.05C318.519 165.52 317.927 165.143 317.074 164.918C316.888 164.863 316.644 164.828 316.342 164.814C315.758 164.788 315.318 164.967 315.021 165.351C314.723 165.711 314.557 166.301 314.52 167.118L314.341 171.106L319.089 172.335L319.271 168.277Z" fill="#2FEB77"/>
<path d="M325.971 145.564C325.876 147.686 325.394 149.559 324.527 151.179C323.638 152.775 322.437 153.994 320.928 154.837C319.395 155.657 317.649 156.022 315.69 155.934C314.734 155.89 313.758 155.742 312.764 155.487C310.269 154.837 308.089 153.71 306.22 152.107C304.353 150.504 302.945 148.571 301.994 146.308C301.022 144.02 300.595 141.582 300.711 138.994C300.807 136.871 301.299 135.011 302.189 133.415C303.056 131.819 304.256 130.611 305.787 129.792C307.321 128.949 309.068 128.572 311.027 128.66C311.961 128.702 312.934 128.851 313.951 129.107C316.446 129.757 318.628 130.884 320.495 132.487C322.34 134.088 323.748 136.033 324.72 138.321C325.671 140.585 326.088 142.998 325.971 145.564ZM319.25 143.789C319.325 142.134 318.856 140.628 317.842 139.274C316.829 137.895 315.42 136.967 313.619 136.489C312.995 136.32 312.429 136.224 311.914 136.202C310.561 136.141 309.506 136.503 308.746 137.287C307.987 138.046 307.573 139.197 307.503 140.736C307.429 142.415 307.896 143.955 308.908 145.357C309.922 146.735 311.318 147.65 313.096 148.105C313.72 148.272 314.301 148.37 314.836 148.394C316.189 148.455 317.246 148.093 318.006 147.309C318.765 146.525 319.181 145.351 319.25 143.789Z" fill="#2FEB77"/>
<path d="M301.933 123.52L302.249 116.487L315.274 112.166L302.592 108.861L302.918 101.618L327.141 107.898L326.826 114.893L313.798 119.286L326.482 122.557L326.155 129.799L301.933 123.52Z" fill="#2FEB77"/>
<path d="M328.365 92.3849C328.27 94.5076 327.788 96.3782 326.921 97.9985C326.031 99.5944 324.831 100.815 323.32 101.658C321.789 102.477 320.041 102.842 318.082 102.755C317.126 102.712 316.151 102.562 315.158 102.306C312.663 101.658 310.482 100.531 308.614 98.9269C306.747 97.324 305.337 95.3908 304.388 93.129C303.416 90.8408 302.989 88.4027 303.105 85.8136C303.199 83.6911 303.693 81.8319 304.583 80.236C305.449 78.6388 306.648 77.4308 308.182 76.6118C309.715 75.7693 311.462 75.392 313.42 75.4802C314.353 75.5222 315.328 75.6712 316.345 75.9273C318.84 76.5772 321.022 77.7037 322.889 79.3069C324.734 80.9091 326.142 82.8538 327.114 85.1413C328.063 87.4043 328.48 89.8187 328.365 92.3849ZM321.644 90.6094C321.719 88.9535 321.25 87.4481 320.234 86.0938C319.221 84.7159 317.815 83.7879 316.013 83.3095C315.389 83.1412 314.821 83.0456 314.308 83.0224C312.955 82.9616 311.898 83.323 311.139 84.1069C310.381 84.8673 309.967 86.0173 309.897 87.5568C309.821 89.236 310.29 90.7763 311.302 92.178C312.316 93.5549 313.712 94.4711 315.49 94.9248C316.114 95.0935 316.693 95.1891 317.23 95.2134C318.583 95.2743 319.64 94.9127 320.4 94.1286C321.159 93.3463 321.573 92.1728 321.644 90.6094Z" fill="#2FEB77"/>
<defs>
<radialGradient id="paint0_radial_1229_6127" cx="0" cy="0" r="1" gradientUnits="userSpaceOnUse" gradientTransform="translate(299.984 299.943) rotate(-43.9638) scale(235.983 235.981)">
<stop offset="0.35" stop-color="#85FFB3"/>
<stop offset="1" stop-color="#2FEB76"/>
</radialGradient>
</defs>
</svg>
