<svg width="64" height="64" viewBox="0 0 64 64" fill="none" xmlns="http://www.w3.org/2000/svg">
<path d="M13.2585 60.16L43.7044 60.0767C48.0101 60.0767 51.6788 56.9536 52.3668 52.7044L59.2472 13.7009C60.1127 8.36319 55.9925 3.52002 50.5849 3.52002H20.1792C15.93 3.52002 12.2909 6.56514 11.541 10.7498L4.62029 49.8367C3.65541 55.2174 7.79174 60.16 13.2585 60.16Z" fill="#02252D"/>
<path d="M24.372 11.376C25.6702 11.376 26.592 11.6609 27.1376 12.2307C27.5462 12.6634 27.7531 13.209 27.7531 13.8701C27.7531 14.0986 27.7289 14.3378 27.6859 14.5877L27.5327 15.4075C27.4064 16.0552 27.1645 16.5632 26.807 16.9287C26.4496 17.2942 26.1325 17.4743 25.8583 17.4743L25.8422 17.6114C26.162 17.6114 26.4845 17.7888 26.8151 18.1408C27.1457 18.4929 27.3097 18.9095 27.3097 19.3879C27.3097 19.5814 27.2855 19.7857 27.2425 20.0034L27.1403 20.5329C26.9576 21.5112 26.5221 22.2799 25.8341 22.8389C25.1461 23.3979 24.1866 23.6748 22.9556 23.6748H17.2524L19.4213 11.3787H24.3747L24.372 11.376ZM22.8347 18.6515H21.2113L20.8028 21.0086H22.4933C23.0174 21.0086 23.434 20.885 23.7404 20.6404C24.0468 20.3958 24.2027 20.0975 24.2027 19.7427C24.2027 19.0143 23.7485 18.6488 22.8374 18.6488L22.8347 18.6515ZM23.2943 14.0395H22.0122L21.5688 16.5847H22.832C23.9259 16.5847 24.4715 16.1063 24.4715 15.1495C24.4715 14.8189 24.372 14.5528 24.1731 14.3459C23.9742 14.1416 23.6813 14.0395 23.2943 14.0395Z" fill="#2DEC76"/>
<path d="M37.0444 23.6721H28.4707L30.6396 11.376H38.1651C38.7107 11.376 39.1246 11.8705 39.0279 12.4054L38.7349 14.0395H33.2359L32.8436 16.3455H37.3857L36.9073 19.009H32.3651L32.0238 21.0059H37.5228L37.0444 23.6694V23.6721Z" fill="#2DEC76"/>
<path d="M51.1843 14.0395H46.9834L45.2929 23.6721H42.202L43.8926 14.0395H39.673L40.1514 11.376H50.6145C51.1601 11.376 51.574 11.8705 51.4772 12.4054L51.1843 14.0395Z" fill="#2DEC76"/>
<path d="M23.6624 40.7602L23.3991 49.1646H23.7914L26.764 39.8572H28.8846C29.4866 39.8572 29.9086 40.4485 29.7124 41.0183L25.8905 52.156H20.7678L21.2301 44.2838L18.9429 52.156H13.8202L13.9385 39.8599H16.3815C16.8761 39.8599 17.2739 40.2711 17.2577 40.7656L16.9809 49.17H17.3733L20.362 39.8626H22.789C23.2835 39.8626 23.6786 40.2711 23.6651 40.7656L23.6624 40.7602Z" fill="#2DEC76"/>
<path d="M34.6819 40.8839L32.7092 52.1533H29.6183L31.7873 39.8572H33.8192C34.3621 39.8572 34.776 40.349 34.6819 40.8839Z" fill="#2DEC76"/>
<path d="M46.5856 40.8839L44.6128 52.1533H41.522L39.3692 45.4234L38.2081 52.1533H35.1173L37.2863 39.8572H39.8342C40.2105 39.8572 40.5437 40.0964 40.6647 40.4538L42.581 46.1436L43.691 39.8599H45.7229C46.2658 39.8599 46.6797 40.3517 46.5856 40.8866V40.8839Z" fill="#2DEC76"/>
<path d="M48.9454 26.7093L46.9726 37.9787H43.8818L41.729 31.2488L40.5679 37.9787H37.4771L39.646 25.6826H42.194C42.5702 25.6826 42.9035 25.9218 43.0245 26.2793L44.9408 31.9691L46.0508 25.6853H48.0827C48.6256 25.6853 49.0395 26.1772 48.9454 26.712V26.7093Z" fill="white"/>
<path d="M31.884 25.6851H23.0336C19.6525 25.6931 16.4165 28.448 15.8225 31.8291C15.2258 35.2102 17.4889 37.965 20.8646 37.9731H29.7151C33.1016 37.9731 36.3456 35.2155 36.9449 31.8291C37.5416 28.4426 35.2705 25.6851 31.884 25.6851ZM35.8887 31.8291C35.3941 34.6296 32.7118 36.9168 29.9059 36.9168C27.1 36.9168 25.2213 34.6323 25.7158 31.8291C26.2104 29.0205 28.8927 26.7413 31.6986 26.7413C34.5045 26.7413 36.3832 29.0231 35.8887 31.8291Z" fill="white"/>
</svg>
