<svg width="476" height="107" viewBox="0 0 476 107" fill="none" xmlns="http://www.w3.org/2000/svg">
<path d="M53.76 106.92C24.43 106.92 0.570007 83.06 0.570007 53.73C0.570007 24.4 24.43 0.540009 53.76 0.540009H422.46C451.79 0.540009 475.65 24.4 475.65 53.73C475.65 83.06 451.79 106.92 422.46 106.92H53.76Z" fill="#02252D"/>
<path d="M72.93 30.75C77.78 30.75 81.23 31.81 83.28 33.94C84.81 35.56 85.58 37.6 85.58 40.07C85.58 40.92 85.49 41.82 85.32 42.75L84.74 45.82C84.27 48.25 83.37 50.14 82.03 51.5C80.69 52.86 79.51 53.54 78.49 53.54L78.43 54.05C79.62 54.05 80.83 54.71 82.07 56.03C83.3 57.35 83.92 58.9 83.92 60.69C83.92 61.41 83.83 62.18 83.66 62.99L83.28 64.97C82.6 68.63 80.97 71.51 78.39 73.59C75.81 75.68 72.23 76.72 67.63 76.72H46.3L54.41 30.74H72.93V30.75ZM67.18 57.96H61.11L59.58 66.77H65.9C67.86 66.77 69.41 66.31 70.56 65.4C71.71 64.49 72.28 63.37 72.28 62.05C72.28 59.33 70.58 57.96 67.17 57.96H67.18ZM68.9 40.71H64.11L62.45 50.23H67.18C71.27 50.23 73.31 48.44 73.31 44.87C73.31 43.64 72.94 42.63 72.19 41.87C71.44 41.1 70.35 40.72 68.9 40.72V40.71Z" fill="#2DEC76"/>
<path d="M120.31 76.73H88.25L96.36 30.75H124.5C126.54 30.75 128.08 32.6 127.72 34.6L126.62 40.71H106.06L104.59 49.33H121.58L119.79 59.29H102.8L101.52 66.76H122.08L120.29 76.72L120.31 76.73Z" fill="#2DEC76"/>
<path d="M173.19 40.71H157.48L151.16 76.73H139.6L145.92 40.71H130.15L131.94 30.75H171.07C173.11 30.75 174.65 32.6 174.29 34.6L173.19 40.71Z" fill="#2DEC76"/>
<path d="M296.67 34.59L289.3 76.73H277.74L269.69 51.57L265.35 76.73H253.79L261.9 30.75H271.43C272.84 30.75 274.08 31.65 274.53 32.98L281.7 54.25L285.85 30.75H293.45C295.48 30.75 297.03 32.59 296.68 34.59H296.67Z" fill="white"/>
<path d="M344.17 34.13L343.19 65.56H344.66L355.77 30.76H363.7C365.95 30.76 367.53 32.97 366.8 35.1L352.51 76.74H333.35L335.07 47.3L326.51 76.74H307.35L307.8 30.76H316.93C318.78 30.76 320.26 32.29 320.2 34.14L319.16 65.56H320.63L331.81 30.76H340.88C342.73 30.76 344.21 32.29 344.15 34.14L344.17 34.13Z" fill="#2DEC76"/>
<path d="M385.37 34.59L378 76.73H366.44L374.55 30.75H382.15C384.18 30.75 385.73 32.59 385.38 34.59H385.37Z" fill="#2DEC76"/>
<path d="M429.88 34.59L422.51 76.73H410.95L402.9 51.57L398.56 76.73H387L395.11 30.75H404.64C406.05 30.75 407.29 31.65 407.74 32.98L414.91 54.25L419.06 30.75H426.66C428.69 30.75 430.24 32.59 429.89 34.59H429.88Z" fill="#2DEC76"/>
<path d="M233.18 30.73H200.08C187.44 30.76 175.34 41.06 173.12 53.71C170.89 66.36 179.35 76.65 191.98 76.69H225.08C237.75 76.69 249.88 66.37 252.11 53.71C254.34 41.04 245.85 30.73 233.19 30.73H233.18ZM248.15 53.71C246.3 64.18 236.28 72.73 225.78 72.73C215.28 72.73 208.27 64.18 210.11 53.71C211.96 43.21 221.98 34.68 232.48 34.68C242.98 34.68 250 43.21 248.15 53.71Z" fill="white"/>
<path d="M298.72 76.7C301.708 76.7 304.13 74.2779 304.13 71.29C304.13 68.3021 301.708 65.88 298.72 65.88C295.732 65.88 293.31 68.3021 293.31 71.29C293.31 74.2779 295.732 76.7 298.72 76.7Z" fill="white"/>
</svg>
