<svg width="383" height="46" viewBox="0 0 383 46" fill="none" xmlns="http://www.w3.org/2000/svg">
<path d="M26.56 0.0800095C31.4 0.0800095 34.84 1.14001 36.88 3.26001C38.41 4.87001 39.17 6.91001 39.17 9.37001C39.17 10.22 39.08 11.11 38.92 12.04L38.35 15.1C37.88 17.52 36.98 19.41 35.64 20.77C34.3 22.13 33.12 22.81 32.11 22.81L32.05 23.32C33.24 23.32 34.45 23.98 35.68 25.29C36.91 26.61 37.53 28.16 37.53 29.94C37.53 30.66 37.44 31.43 37.28 32.23L36.9 34.2C36.22 37.85 34.6 40.72 32.03 42.8C29.46 44.88 25.88 45.92 21.3 45.92H0L8.09 0.0700073H26.56V0.0800095ZM20.82 27.21H14.77L13.24 36H19.54C21.49 36 23.04 35.54 24.19 34.63C25.34 33.72 25.91 32.6 25.91 31.29C25.91 28.57 24.21 27.21 20.82 27.21ZM22.54 10.02H17.76L16.1 19.51H20.81C24.89 19.51 26.92 17.73 26.92 14.16C26.92 12.93 26.55 11.93 25.81 11.17C25.07 10.41 23.97 10.02 22.53 10.02H22.54Z" fill="#2DEC76"/>
<path d="M73.81 45.93H41.84L49.93 0.0800171H78C80.03 0.0800171 81.57 1.92001 81.21 3.92001L80.12 10.01H59.61L58.14 18.61H75.08L73.3 28.54H56.36L55.09 35.99H75.6L73.82 45.92L73.81 45.93Z" fill="#2DEC76"/>
<path d="M126.54 10.02H110.87L104.57 45.94H93.04L99.34 10.02H83.61L85.39 0.0900269H124.41C126.44 0.0900269 127.98 1.93003 127.62 3.93003L126.53 10.02H126.54Z" fill="#2DEC76"/>
<path d="M249.67 3.91001L242.32 45.93H230.79L222.77 20.84L218.44 45.93H206.91L215 0.0800095H224.5C225.9 0.0800095 227.15 0.970011 227.59 2.30001L234.74 23.51L238.88 0.0700073H246.46C248.49 0.0700073 250.03 1.90001 249.68 3.90001L249.67 3.91001Z" fill="white"/>
<path d="M297.04 3.45001L296.06 34.79H297.53L308.61 0.0800171H316.52C318.76 0.0800171 320.34 2.29002 319.61 4.41002L305.36 45.94H286.26L287.98 16.58L279.45 45.94H260.34L260.79 0.0900116H269.9C271.75 0.0900116 273.22 1.62001 273.16 3.46001L272.13 34.79H273.59L284.73 0.0800171H293.78C295.62 0.0800171 297.1 1.60001 297.04 3.45001Z" fill="#2DEC76"/>
<path d="M338.13 3.91002L330.78 45.93H319.25L327.34 0.0800171H334.92C336.95 0.0800171 338.49 1.91002 338.14 3.91002H338.13Z" fill="#2DEC76"/>
<path d="M382.51 3.91001L375.16 45.93H363.63L355.61 20.84L351.28 45.93H339.75L347.84 0.0800095H357.34C358.74 0.0800095 359.99 0.970011 360.43 2.30001L367.58 23.51L371.72 0.0700073H379.3C381.33 0.0700073 382.87 1.90001 382.52 3.90001L382.51 3.91001Z" fill="#2DEC76"/>
<path d="M186.37 0.0599976H153.37C140.76 0.0899976 128.7 10.36 126.48 22.97C124.25 35.58 132.69 45.85 145.28 45.88H178.28C190.91 45.88 203.01 35.59 205.24 22.97C207.47 10.34 199 0.0599976 186.37 0.0599976ZM201.29 22.97C199.45 33.41 189.45 41.94 178.98 41.94C168.51 41.94 161.51 33.42 163.36 22.97C165.2 12.5 175.2 4 185.67 4C196.14 4 203.14 12.5 201.29 22.97Z" fill="white"/>
<path d="M251.72 45.9C254.697 45.9 257.11 43.4868 257.11 40.51C257.11 37.5332 254.697 35.12 251.72 35.12C248.743 35.12 246.33 37.5332 246.33 40.51C246.33 43.4868 248.743 45.9 251.72 45.9Z" fill="white"/>
</svg>
