<svg width="141" height="152" viewBox="0 0 141 152" fill="none" xmlns="http://www.w3.org/2000/svg">
<path d="M39.36 0.26001C44.19 0.26001 47.62 1.32001 49.65 3.44001C51.17 5.05001 51.94 7.08001 51.94 9.54001C51.94 10.39 51.85 11.28 51.69 12.21L51.12 15.26C50.65 17.67 49.75 19.56 48.42 20.92C47.09 22.28 45.91 22.95 44.89 22.95L44.83 23.46C46.02 23.46 47.22 24.12 48.45 25.43C49.68 26.74 50.29 28.29 50.29 30.07C50.29 30.79 50.2 31.55 50.04 32.36L49.66 34.33C48.98 37.97 47.36 40.83 44.8 42.91C42.24 44.99 38.67 46.02 34.09 46.02H12.87L20.94 0.27001H39.37L39.36 0.26001ZM33.64 27.33H27.6L26.08 36.1H32.37C34.32 36.1 35.87 35.64 37.01 34.73C38.15 33.82 38.73 32.71 38.73 31.39C38.73 28.68 37.04 27.32 33.65 27.32L33.64 27.33ZM35.35 10.18H30.58L28.93 19.65H33.63C37.7 19.65 39.73 17.87 39.73 14.31C39.73 13.08 39.36 12.09 38.62 11.32C37.88 10.56 36.79 10.18 35.35 10.18Z" fill="#2DEC76"/>
<path d="M86.51 46.02H54.61L62.68 0.27002H90.68C92.71 0.27002 94.25 2.11002 93.89 4.10002L92.8 10.18H72.34L70.88 18.76H87.78L86 28.67H69.1L67.83 36.1H88.29L86.51 46.01V46.02Z" fill="#2DEC76"/>
<path d="M139.12 10.18H123.49L117.2 46.02H105.7L111.99 10.18H96.29L98.07 0.27002H137C139.03 0.27002 140.57 2.11002 140.21 4.10002L139.12 10.18Z" fill="#2DEC76"/>
<path d="M36.72 109.6L35.74 140.87H37.2L48.26 106.24H56.15C58.39 106.24 59.96 108.44 59.23 110.56L45.01 152H25.95L27.67 122.71L19.16 152H0.0999756L0.539978 106.25H9.63C11.47 106.25 12.95 107.78 12.89 109.62L11.86 140.89H13.32L24.44 106.26H33.47C35.31 106.26 36.78 107.78 36.73 109.62L36.72 109.6Z" fill="#2DEC76"/>
<path d="M77.72 110.06L70.38 151.99H58.88L66.95 106.24H74.51C76.53 106.24 78.07 108.07 77.72 110.06Z" fill="#2DEC76"/>
<path d="M122.01 110.06L114.67 151.99H103.17L95.16 126.95L90.84 151.99H79.34L87.41 106.24H96.89C98.29 106.24 99.53 107.13 99.98 108.46L107.11 129.63L111.24 106.25H118.8C120.82 106.25 122.36 108.08 122.01 110.07V110.06Z" fill="#2DEC76"/>
<path d="M130.79 57.31L123.45 99.24H111.95L103.94 74.2L99.62 99.24H88.12L96.19 53.49H105.67C107.07 53.49 108.31 54.38 108.76 55.71L115.89 76.88L120.02 53.5H127.58C129.6 53.5 131.14 55.33 130.79 57.32V57.31Z" fill="white"/>
<path d="M67.31 53.51H34.38C21.8 53.54 9.75998 63.79 7.54998 76.37C5.32998 88.95 13.75 99.2 26.31 99.23H59.24C71.84 99.23 83.91 88.97 86.14 76.37C88.36 63.77 79.91 53.51 67.31 53.51ZM82.21 76.37C80.37 86.79 70.39 95.3 59.95 95.3C49.51 95.3 42.52 86.8 44.36 76.37C46.2 65.92 56.18 57.44 66.62 57.44C77.06 57.44 84.05 65.93 82.21 76.37Z" fill="white"/>
</svg>
